<svg xmlns="http://www.w3.org/2000/svg" width="128" height="128" fill="none"><rect width="128" height="128" fill="#000" rx="28"/><path fill="#fff" d="M89.676 65.864h13.034a2.853 2.853 0 0 1 2.853 2.853v9.065a2.853 2.853 0 0 1-2.853 2.853H91.13c-.757 0-1.482.3-2.017.835L71.418 99.165a2.853 2.853 0 0 1-2.017.835h-9.814a2.853 2.853 0 0 1-2.852-2.78l-.237-9.204a2.853 2.853 0 0 1 2.851-2.927h8.74c.756 0 1.481-.3 2.016-.835L87.66 66.7a2.853 2.853 0 0 1 2.017-.836ZM55.943 27.707h13.034a2.853 2.853 0 0 1 2.852 2.853v9.065a2.853 2.853 0 0 1-2.852 2.852h-11.58c-.757 0-1.483.3-2.018.836L37.685 61.007a2.853 2.853 0 0 1-2.017.836h-9.814a2.853 2.853 0 0 1-2.852-2.78l-.238-9.205a2.853 2.853 0 0 1 2.852-2.926h8.739c.757 0 1.482-.3 2.017-.836l17.554-17.553a2.853 2.853 0 0 1 2.017-.836Zm33.733 8.635h13.034a2.853 2.853 0 0 1 2.853 2.853v9.065a2.853 2.853 0 0 1-2.853 2.853H91.13c-.757 0-1.482.3-2.017.835L71.418 69.643a2.853 2.853 0 0 1-2.017.835H58.506c-.736 0-1.443.284-1.974.793L36.76 90.223a2.852 2.852 0 0 1-1.974.793H26.17a2.853 2.853 0 0 1-2.853-2.853v-9.252a2.853 2.853 0 0 1 2.852-2.853h8.58c.756 0 1.482-.3 2.017-.836l18.82-18.82a2.853 2.853 0 0 1 2.017-.835h10.484c.757 0 1.482-.3 2.017-.835L87.66 37.178a2.853 2.853 0 0 1 2.017-.836Z"/></svg>